<svg xmlns="http://www.w3.org/2000/svg" xml:space="preserve" width="84.446" height="39.999" fill-rule="evenodd" clip-rule="evenodd" image-rendering="optimizeQuality" shape-rendering="geometricPrecision" text-rendering="geometricPrecision" viewBox="0 0 2234 1058"><path fill="#f8af25" d="m234 662 116-116 25 25-119 120c-8-9-16-19-22-29m-41-133c0-40 11-78 28-112l112 112-112 112c-17-33-28-71-28-112m63-161 119 119-25 25-116-116c6-10 14-19 22-28m162 401c-34-2-67-11-95-26l95-95v-34L301 730c-10-7-19-14-28-22l119-120 26 26v-34l-9-9 9-8v-34l-26 26-25-26 25-25 26 25v-34l-9-8 9-8v-34l-26 25-119-119c9-8 18-16 28-23l117 117v-34l-95-95c28-15 61-25 95-27v-29c-141 9-254 126-254 269s113 261 254 269z"/><path fill="#214868" d="M1307 79v407h-92V212l-37 274h-66l-38-268v268h-93V79h137c4 25 8 54 13 87l15 103 24-190zm149 0v407h-106V79zm169 262c-5-46-11-103-16-171-11 78-18 135-20 171zm56-262 60 407h-108l-5-73h-38l-6 73h-110l54-407zm405 0v407h-93V212l-37 274h-65l-39-268v268h-93V79h137c4 25 9 54 13 87l15 103 24-190zm148 0v407h-106V79zM1205 687h-98v-30c0-14-1-23-4-27-2-4-7-6-12-6-7 0-12 3-15 8s-5 13-5 24q0 19.5 6 30c3 7 13 15 30 25 47 28 76 51 89 69q18 27 18 87c0 29-3 50-10 64-7 13-20 25-40 34-19 10-42 14-67 14-29 0-53-5-73-16s-33-24-39-41c-6-16-9-40-9-70v-27h98v49c0 16 1 26 4 30q4.5 6 15 6c7 0 12-2 15-8 4-5 5-14 5-25 0-23-3-39-9-47-7-7-24-19-50-36-26-18-44-31-52-38q-13.5-12-21-33c-6-14-9-32-9-53q0-46.5 12-69 12-21 39-33c18-9 39-13 64-13 28 0 51 5 70 14 20 9 32 20 39 33q9 21 9 69zm178-19c0-18-1-31-3-36s-6-8-13-8c-6 0-10 2-13 7-3 4-4 17-4 37v190c0 24 1 39 3 44 2 6 6 8 13 8s12-3 14-9c2-7 3-22 3-46zm106 134q0 61.5-3 87c-2 17-8 32-18 47-10 14-24 24-41 32-17 7-38 11-60 11s-42-3-59-10c-18-8-31-18-42-32-11-15-17-30-19-47s-3-46-3-88v-69q0-61.5 3-87c2-17 8-33 18-47s24-25 41-32c17-8 38-12 61-12 21 0 41 4 58 11 18 7 31 18 42 32s17 30 19 47c2 16 3 46 3 88zm145-238v325h64v82h-170V564zm230 261c-6-46-11-103-16-170-11 78-18 134-21 170zm56-261 60 407h-108l-6-73h-37l-7 73h-109l54-407zm184 70v90c12 0 20-2 25-5s7-14 7-32v-22c0-13-2-21-7-25-4-4-13-6-25-6m130 337V861c0-31-1-51-2-58-2-7-7-15-14-24q-10.5-12-42-21c23-2 39-8 46-19q12-16.5 12-63v-2c0-34-5-59-16-75-12-16-26-25-44-29-17-4-51-6-101-6h-75v407h106V787c14 0 23 3 27 8 3 5 5 19 5 41v135z"/><path fill="#16838f" d="M639 77H480l-26 26v159l26 26h159l26-26V103zM480 308l-26 26v159l26 26h159l26-26V334l-26-26zm159 231H480l-26 26v159c10 10 16 16 26 27h159c10-11 16-17 26-27V565zm0 231H480l-26 26v159c10 10 16 16 26 27h159c10-11 16-17 26-27V796zM868 77H710c-11 10-16 16-27 26v159c11 10 16 16 27 26h158c11-10 17-16 27-26V103c-10-10-16-16-27-26M710 308c-11 10-16 16-27 26v159c11 10 16 16 27 26h158c11-10 17-16 27-26V334c-10-10-16-16-27-26zm0 231c-11 10-16 16-27 26v159c11 10 16 16 27 27h158l27-27V565c-10-10-16-16-27-26zm0 231c-11 10-16 16-27 26v159c11 10 16 16 27 27h158l27-27V796c-10-10-16-16-27-26z"/><path fill="#f8af25" d="M390 209c12-2 20-14 17-26-2-11-30-101-42-99-12 3-3 96-1 108 3 12 14 20 26 17m-61 19c11-5 16-18 12-29-5-11-50-94-61-89s16 95 20 106c5 11 18 16 29 12m-57 30c10-7 13-20 6-30-6-11-66-83-76-76s33 90 40 100 20 13 30 6m-49 40c8-8 8-22 0-31-9-8-82-67-90-59-9 9 50 82 59 90 9 9 22 9 31 0m-71 56c10 7 24 4 30-6 7-10 4-24-6-30-10-7-93-51-100-41-6 10 66 70 76 77m-28 62c11 5 24-1 28-12 5-11 0-24-12-28-11-5-101-32-105-20-5 11 77 56 89 60m-16 67c12 2 23-6 26-17 2-12-6-24-18-26-11-3-105-11-107 1-3 12 87 39 99 42m19 46c0-12-9-22-22-22-12 0-105 10-105 22s93 22 105 22c13 0 22-10 22-22m-11 90c12-3 20-14 18-26-3-12-14-20-26-17-12 2-102 30-99 42 2 12 96 3 107 1m36 35c-4-11-17-17-28-12-12 5-94 50-89 61 4 11 94-16 105-20 12-5 17-18 12-29m30 56c-6-10-20-12-30-6-10 7-82 67-76 77 7 10 90-34 100-40 10-7 13-21 6-31m41 50c-9-9-22-9-31 0-9 8-68 81-59 90 8 8 81-51 90-59 8-9 8-23 0-31m49 40c-10-6-23-4-30 6s-50 94-40 100c10 7 70-65 76-75 7-10 4-24-6-31m57 31c-11-5-24 0-29 11-4 12-31 102-20 106 11 5 56-78 61-89 4-11-1-24-12-28m61 18c-12-2-23 5-26 17-2 12-11 106 1 108s40-87 42-99c3-12-5-24-17-26"/></svg>